<?xml version="1.0"?>
<svg xmlns="http://www.w3.org/2000/svg" xmlns:xlink="http://www.w3.org/1999/xlink" xmlns:svgjs="http://svgjs.com/svgjs" version="1.1" width="512" height="512" x="0" y="0" viewBox="0 0 512 512" style="enable-background:new 0 0 512 512" xml:space="preserve" class=""><g><g xmlns="http://www.w3.org/2000/svg"><path d="m247.603 223.351v12.19c0 4.142 3.358 7.5 7.5 7.5s7.5-3.358 7.5-7.5v-12.19c0-4.143-3.358-7.5-7.5-7.5s-7.5 3.358-7.5 7.5z" fill="#ff4343" data-original="#000000" style="" class=""/><path d="m374.478 223.351v12.19c0 4.142 3.358 7.5 7.5 7.5s7.5-3.358 7.5-7.5v-12.19c0-4.143-3.358-7.5-7.5-7.5s-7.5 3.358-7.5 7.5z" fill="#ff4343" data-original="#000000" style="" class=""/><path d="m329.612 230.251c-2.795 3.207-6.831 5.047-11.071 5.047s-8.275-1.839-11.07-5.047c-2.721-3.123-7.459-3.448-10.582-.727s-3.448 7.458-.727 10.582c5.645 6.477 13.801 10.192 22.379 10.192 8.577 0 16.734-3.715 22.379-10.192 2.722-3.123 2.396-7.86-.726-10.582-3.124-2.721-7.862-2.396-10.582.727z" fill="#ff4343" data-original="#000000" style="" class=""/><path d="m404.839 413.167c-15.261 0-27.676 12.416-27.676 27.676s12.416 27.676 27.676 27.676c15.261 0 27.677-12.416 27.677-27.676s-12.415-27.676-27.677-27.676zm0 40.352c-6.99 0-12.676-5.687-12.676-12.676s5.687-12.676 12.676-12.676 12.677 5.687 12.677 12.676-5.687 12.676-12.677 12.676z" fill="#ff4343" data-original="#000000" style="" class=""/><path d="m211.818 413.167c-15.261 0-27.676 12.416-27.676 27.676s12.416 27.676 27.676 27.676c15.261 0 27.677-12.416 27.677-27.676s-12.416-27.676-27.677-27.676zm0 40.352c-6.99 0-12.676-5.687-12.676-12.676s5.687-12.676 12.676-12.676 12.677 5.687 12.677 12.676-5.687 12.676-12.677 12.676z" fill="#ff4343" data-original="#000000" style="" class=""/><path d="m410.342 65.497h30.668c4.142 0 7.5-3.358 7.5-7.5s-3.358-7.5-7.5-7.5h-30.668c-4.142 0-7.5 3.358-7.5 7.5s3.358 7.5 7.5 7.5z" fill="#ff4343" data-original="#000000" style="" class=""/><path d="m410.342 91.673h30.668c4.142 0 7.5-3.358 7.5-7.5s-3.358-7.5-7.5-7.5h-30.668c-4.142 0-7.5 3.358-7.5 7.5s3.358 7.5 7.5 7.5z" fill="#ff4343" data-original="#000000" style="" class=""/><path d="m35.435 159.838h50.329c4.43 0 8.297 3.148 9.214 7.576l35.859 163.061c5.227 25.251 20.781 46.937 42.605 60.167-15.093 11.565-24.851 29.761-24.851 50.201 0 34.863 28.363 63.226 63.226 63.226s63.226-28.363 63.226-63.226c0-13.71-4.4-26.404-11.843-36.774h90.256c-7.443 10.37-11.843 23.064-11.843 36.774 0 34.863 28.363 63.226 63.226 63.226s63.226-28.363 63.226-63.226c0-15.656-5.732-29.989-15.192-41.043 11.116-5.999 18.493-17.708 18.493-31.166 0-16.272-11.029-30.009-26.001-34.15l19.407-72.29c1.074-4-1.298-8.114-5.299-9.188-3.998-1.073-8.113 1.298-9.188 5.299l-20.105 74.893h-208.954c-10.287 0-18.988-7.418-21.008-17.18l-7.207-32.773c-.834-3.793-4.404-6.278-8.179-5.841-4.399.503-7.427 4.717-6.471 9.063l7.188 32.682c3.483 16.832 18.488 29.049 35.678 29.049h214.705c11.268 0 20.436 9.167 20.436 20.436 0 9.743-6.696 17.903-15.953 19.942-10.758-7.351-23.102-10.959-35.574-10.959-12.811 0-25.412 3.808-36.281 11.452h-120.461c-10.86-7.638-23.456-11.452-36.281-11.452-7.829 0-15.719 1.496-22.911 4.296-22.299-10.333-38.417-30.493-43.4-54.569l-35.86-163.061c-2.332-11.267-12.376-19.445-23.883-19.445h-50.329c-11.268 0-20.435-9.168-20.435-20.436s9.167-20.436 20.435-20.436h50.329c30.606 0 57.531 21.682 63.884 51.942.226 1.088 22.085 100.421 22.115 100.558.872 3.969 4.836 6.6 8.914 5.718.007-.001.014-.002.022-.003 4.045-.89 6.604-4.891 5.714-8.936l-12.404-56.406h292.776l-8.447 31.466c-1.074 4 1.299 8.114 5.299 9.188s8.114-1.298 9.188-5.299l9.625-35.853c16.746-2.813 29.55-17.404 29.55-34.937 0-16.966-11.988-31.178-27.936-34.629v-71.826c0-19.597-15.943-35.54-35.54-35.54-4.436 0-118.333 0-124.035 0-7.066-7.087-16.833-11.479-27.607-11.479h-59.749c-21.506 0-39.002 17.496-39.002 39.002v25l-47.906 49.585c-14.81-19.901-38.503-32.551-64.461-32.551h-50.329c-19.539.001-35.435 15.897-35.435 35.436s15.896 35.436 35.435 35.436zm176.383 329.231c-26.592 0-48.226-21.634-48.226-48.226 0-26.16 21.202-48.177 48.166-48.225.02 0 .039-.001.059-.001 26.53 0 48.226 21.575 48.226 48.226.001 26.592-21.633 48.226-48.225 48.226zm193.021 0c-26.592 0-48.226-21.634-48.226-48.226 0-26.794 21.84-48.226 48.226-48.226 26.625 0 48.226 21.664 48.226 48.226 0 26.592-21.634 48.226-48.226 48.226zm-37.604-363.1h-77.7l38.85-40.211c12.692 13.137 21.284 22.03 38.85 40.211zm-158.421-43.505h101.896c-10.309 10.671-30.814 31.893-42.033 43.505h-101.896zm288.186 78.941c0 11.268-9.167 20.435-20.436 20.435h-305.854l-6.022-27.378c-.305-1.228-1.29-6.818-3.815-13.493h315.69c11.27 0 20.437 9.167 20.437 20.436zm-27.936-106.456v71.02h-80.972l-5.805-6.008v-65.012c0-11.326 9.214-20.54 20.54-20.54h45.697c11.326.001 20.54 9.215 20.54 20.54zm-135.226-20.539h40.001c-4.255 5.989-6.551 13.188-6.551 20.54v49.486l-31.403-32.503v-25s0 0 0-.001c0-4.094-.657-8.422-2.047-12.522zm-120.707 12.523c0-13.235 10.767-24.002 24.002-24.002h59.749c13.305 0 24.002 10.844 24.002 24.002v20.53h-107.753z" fill="#ff4343" data-original="#000000" style="" class=""/></g></g></svg>
